<?xml version="1.0" encoding="utf-8"?>
<!-- Generator: Adobe Illustrator 16.0.0, SVG Export Plug-In . SVG Version: 6.00 Build 0)  -->
<!DOCTYPE svg PUBLIC "-//W3C//DTD SVG 1.1//EN" "http://www.w3.org/Graphics/SVG/1.1/DTD/svg11.dtd">
<svg version="1.1" id="Layer_1" xmlns="http://www.w3.org/2000/svg" xmlns:xlink="http://www.w3.org/1999/xlink" x="0px" y="0px"
	 width="300px" height="300px" viewBox="0 0 300 300" enable-background="new 0 0 300 300" xml:space="preserve">
<g>
	<path fill="#4FA4DB" d="M265.693,149.695c0,19.62-2.899,37.688-8.696,54.189c-5.797,16.494-13.825,30.775-24.085,42.816
		c-10.262,12.041-22.465,21.403-36.577,28.097c-14.131,6.691-29.368,10.039-45.726,10.039c-16.657,0-32.046-3.347-46.168-10.039
		c-14.13-6.693-26.316-16.056-36.576-28.097c-10.26-12.041-18.289-26.322-24.085-42.816c-5.807-16.502-8.706-34.569-8.706-54.189
		c0-19.621,2.899-37.697,8.706-54.19C49.577,78.993,57.605,64.73,67.865,52.68c10.26-12.032,22.446-21.47,36.576-28.315
		c14.122-6.846,29.511-10.259,46.168-10.259c16.356,0,31.595,3.413,45.726,10.259c14.112,6.845,26.315,16.284,36.577,28.315
		c10.26,12.05,18.288,26.313,24.085,42.826C262.794,111.999,265.693,130.075,265.693,149.695z M205.471,149.695
		c0-11.898-1.336-22.824-4.006-32.787c-2.67-9.963-6.465-18.505-11.385-25.646c-4.9-7.141-10.698-12.632-17.393-16.503
		c-6.693-3.852-14.055-5.797-22.078-5.797c-8.323,0-15.914,1.945-22.75,5.797c-6.846,3.871-12.71,9.362-17.621,16.503
		c-4.901,7.141-8.696,15.683-11.375,25.646c-2.67,9.962-4.015,20.888-4.015,32.787s1.345,22.749,4.015,32.567
		c2.679,9.801,6.474,18.276,11.375,25.418c4.911,7.131,10.775,12.641,17.621,16.492c6.837,3.871,14.427,5.797,22.75,5.797
		c8.023,0,15.385-1.926,22.078-5.797c6.693-3.852,12.492-9.361,17.393-16.492c4.92-7.142,8.715-15.617,11.385-25.418
		C204.135,172.443,205.471,161.594,205.471,149.695z"/>
</g>
</svg>
