<?xml version="1.0" encoding="utf-8"?>
<!-- Generator: Adobe Illustrator 16.0.0, SVG Export Plug-In . SVG Version: 6.00 Build 0)  -->
<!DOCTYPE svg PUBLIC "-//W3C//DTD SVG 1.1//EN" "http://www.w3.org/Graphics/SVG/1.1/DTD/svg11.dtd">
<svg version="1.1" id="Layer_1" xmlns="http://www.w3.org/2000/svg" xmlns:xlink="http://www.w3.org/1999/xlink" x="0px" y="0px"
	 width="300px" height="300px" viewBox="0 0 300 300" enable-background="new 0 0 300 300" xml:space="preserve">
<g>
	<path fill="#4FA4DB" d="M245.369,224.927v55.106H63.843v-55.106h63.487V86.911c-2.676,3.641-6.852,7.36-12.51,11.158
		c-5.667,3.797-11.927,7.36-18.78,10.7c-6.862,3.35-14.02,6.085-21.465,8.208c-7.455,2.122-14.011,3.184-19.668,3.184V63.223
		c5.361,0,11.917-1.743,19.668-5.238c7.75-3.486,15.348-7.663,22.803-12.526c7.445-4.854,14.011-9.644,19.668-14.346
		c5.667-4.703,9.089-8.422,10.283-11.167h61.261v204.981H245.369z"/>
</g>
</svg>
