<?xml version="1.0" encoding="utf-8"?>
<!-- Generator: Adobe Illustrator 16.0.0, SVG Export Plug-In . SVG Version: 6.00 Build 0)  -->
<!DOCTYPE svg PUBLIC "-//W3C//DTD SVG 1.1//EN" "http://www.w3.org/Graphics/SVG/1.1/DTD/svg11.dtd">
<svg version="1.1" id="Layer_1" xmlns="http://www.w3.org/2000/svg" xmlns:xlink="http://www.w3.org/1999/xlink" x="0px" y="0px"
	 width="300px" height="300px" viewBox="0 0 300 300" enable-background="new 0 0 300 300" xml:space="preserve">
<g>
	<path fill="#4FA4DB" d="M40.854,279.443c0-13.459,1.063-25.633,3.2-36.56c2.117-10.907,5.933-20.991,11.406-30.271
		c5.484-9.26,12.782-17.926,21.916-25.995c9.123-8.071,20.842-15.989,35.146-23.777c12.167-6.575,23.047-12.325,32.639-17.263
		c9.582-4.937,17.642-9.49,24.188-13.674c6.547-4.184,11.484-8.449,14.842-12.792c3.347-4.323,5.016-9.336,5.016-15.011
		c0-8.972-3.648-16.668-10.948-23.101c-7.309-6.422-17.808-9.643-31.497-9.643c-7.309,0-14.002,0.978-20.091,2.914
		c-6.088,1.956-11.796,4.563-17.114,7.851c-5.328,3.288-10.197,6.949-14.607,10.994c-4.42,4.031-8.45,8.292-12.099,12.768
		l-39.254-44.39c3.952-4.179,9.582-8.742,16.89-13.678c7.299-4.927,15.895-9.562,25.789-13.899
		c9.884-4.333,20.842-7.913,32.863-10.755c12.021-2.847,24.881-4.266,38.571-4.266c15.522,0,29.369,1.869,41.547,5.607
		c12.168,3.738,22.433,8.972,30.806,15.691c8.371,6.719,14.763,14.8,19.172,24.227c4.412,9.413,6.627,19.65,6.627,30.707
		c0,10.467-1.991,19.727-5.934,27.802c-3.962,8.066-8.986,15.246-15.064,21.524c-6.1,6.282-12.715,11.731-19.856,16.372
		c-7.161,4.645-14.079,8.747-20.774,12.332c-5.474,2.99-11.338,6.269-17.572,9.854c-6.244,3.604-12.401,7.553-18.49,11.896
		c-6.089,4.342-11.641,9.039-16.656,14.119c-5.025,5.1-8.909,10.467-11.641,16.15h131.003v54.264H40.854V279.443z"/>
</g>
</svg>
