<?xml version="1.0" encoding="utf-8"?>
<!-- Generator: Adobe Illustrator 16.0.0, SVG Export Plug-In . SVG Version: 6.00 Build 0)  -->
<!DOCTYPE svg PUBLIC "-//W3C//DTD SVG 1.1//EN" "http://www.w3.org/Graphics/SVG/1.1/DTD/svg11.dtd">
<svg version="1.1" id="Layer_1" xmlns="http://www.w3.org/2000/svg" xmlns:xlink="http://www.w3.org/1999/xlink" x="0px" y="0px"
	 width="400px" height="400px" viewBox="0 0 400 400" enable-background="new 0 0 400 400" xml:space="preserve">
<g>
	<path fill="#4FA4DB" d="M206.402,151.944c14.843,0,28.677,2.439,41.441,7.354c12.785,4.896,23.855,11.803,33.213,20.711
		c9.354,8.917,16.634,19.625,21.835,32.095c5.201,12.479,7.793,26.295,7.793,41.451c0,16.043-2.973,30.6-8.897,43.67
		c-5.964,13.069-14.119,24.293-24.523,33.647c-10.402,9.374-22.73,16.644-36.982,21.845c-14.272,5.191-29.725,7.803-46.358,7.803
		c-23.17,0-43.901-4.906-62.179-14.709c-18.272-9.813-32.163-23.179-41.671-40.107l34.316-35.667
		c8.612,11.594,19.092,20.806,31.425,27.646c12.328,6.821,25.189,10.252,38.547,10.252c16.043,0,29.189-4.84,39.441-14.49
		c10.251-9.65,15.378-22.512,15.378-38.555c0-15.434-4.82-27.923-14.482-37.438c-9.66-9.509-21.911-14.252-36.773-14.252
		c-9.793,0-18.94,2.229-27.4,6.678c-8.479,4.459-15.224,10.546-20.273,18.272H98.094c0-0.887,0.59-4.239,1.781-10.032
		c1.182-5.792,2.677-13.203,4.458-22.273c1.782-9.069,3.715-19.167,5.793-30.313c2.077-11.146,4.306-22.502,6.688-34.086
		c5.344-27.332,11.289-57.941,17.825-91.817h156.001v54.378H177.878l-12.48,70.859c3.563-3.858,8.765-6.974,15.605-9.355
		C187.825,153.125,196.304,151.944,206.402,151.944z"/>
</g>
</svg>
