<?xml version="1.0" encoding="utf-8"?>
<!-- Generator: Adobe Illustrator 16.0.0, SVG Export Plug-In . SVG Version: 6.00 Build 0)  -->
<!DOCTYPE svg PUBLIC "-//W3C//DTD SVG 1.1//EN" "http://www.w3.org/Graphics/SVG/1.1/DTD/svg11.dtd">
<svg version="1.1" id="Layer_1" xmlns="http://www.w3.org/2000/svg" xmlns:xlink="http://www.w3.org/1999/xlink" x="0px" y="0px"
	 width="400px" height="400px" viewBox="0 0 400 400" enable-background="new 0 0 400 400" xml:space="preserve">
<g>
	<path fill="#1A1A1A" d="M247.699,190.323c18.823,3.356,33.986,12.411,45.49,27.16c11.495,14.772,17.252,32.805,17.252,54.096
		c0,14.305-2.768,27.224-8.295,38.796s-13.372,21.389-23.526,29.448c-10.153,8.06-22.405,14.305-36.744,18.716
		c-14.34,4.41-30.327,6.615-47.952,6.615c-23.009,0-43.239-3.728-60.721-11.182c-17.472-7.455-31.889-18.345-43.239-32.63
		l34.053-43.382c7.769,10.05,16.955,17.817,27.559,23.281c10.604,5.483,23.976,8.226,40.107,8.226
		c18.219,0,32.195-3.659,41.908-10.958c9.703-7.299,14.561-18.559,14.561-33.78c0-15.827-5.537-27.984-16.582-36.513
		c-11.054-8.528-27.788-12.782-50.193-12.782h-12.548v-45.651h13.899c18.219,0,32.405-4.186,42.569-12.558
		c10.153-8.362,15.24-19.086,15.24-32.176c0-12.475-4.109-21.754-12.328-27.853c-8.219-6.079-19.043-9.123-32.492-9.123
		c-13.746,0-26.064,3.191-36.965,9.591c-10.911,6.382-19.8,15.358-26.668,26.931L94.446,81.683
		c4.474-6.996,10.451-13.31,17.922-18.949c7.462-5.621,15.911-10.499,25.317-14.598c9.407-4.118,19.637-7.308,30.701-9.592
		c11.044-2.283,22.405-3.42,34.053-3.42c15.24,0,29.129,1.986,41.678,5.928c12.549,3.962,23.306,9.45,32.262,16.432
		c8.966,7.006,15.91,15.456,20.844,25.341c4.924,9.894,7.395,20.93,7.395,33.088c0,9.138-1.35,17.817-4.032,26.033
		c-2.691,8.216-6.581,15.67-11.657,22.364c-5.087,6.693-11.131,12.324-18.152,16.88
		C263.754,185.757,256.063,188.801,247.699,190.323z"/>
</g>
</svg>
