<?xml version="1.0" encoding="utf-8"?>
<!-- Generator: Adobe Illustrator 16.0.0, SVG Export Plug-In . SVG Version: 6.00 Build 0)  -->
<!DOCTYPE svg PUBLIC "-//W3C//DTD SVG 1.1//EN" "http://www.w3.org/Graphics/SVG/1.1/DTD/svg11.dtd">
<svg version="1.1" id="Layer_1" xmlns="http://www.w3.org/2000/svg" xmlns:xlink="http://www.w3.org/1999/xlink" x="0px" y="0px"
	 width="400px" height="400px" viewBox="0 0 400 400" enable-background="new 0 0 400 400" xml:space="preserve">
<g>
	<path fill="#1A1A1A" d="M315.554,252.323c0,15.787-2.945,30.514-8.854,44.169c-5.908,13.665-13.958,25.578-24.156,35.749
		c-10.18,10.171-22.301,18.142-36.325,23.904c-14.016,5.762-29.167,8.652-45.407,8.652c-17.708,0-33.74-3.349-48.068-10.025
		c-14.318-6.667-26.515-16.39-36.543-29.14c-10.047-12.751-17.793-28.304-23.267-46.66c-5.455-18.376-8.182-39.243-8.182-62.622
		c0-29.433,2.878-55.458,8.626-78.068c5.767-22.629,13.892-41.599,24.365-56.928c10.493-15.329,23.267-26.931,38.333-34.834
		c15.066-7.894,31.884-11.845,50.501-11.845c19.781,0,38.105,4.409,54.933,13.208c16.827,8.809,31.013,21.403,42.528,37.793
		l-34.109,38.25c-7.093-11.534-16.24-20.488-27.462-26.863c-11.231-6.385-23.484-9.568-36.771-9.568
		c-19.801,0-35.521,8.049-47.187,24.128c-11.676,16.098-17.793,38.873-18.39,68.306c5.9-10.911,14.631-19.583,26.146-25.948
		c11.515-6.385,24.801-9.567,39.867-9.567c15.359,0,29.744,2.735,43.2,8.195c13.428,5.46,25.019,13.052,34.772,22.765
		c9.744,9.723,17.424,21.179,23.039,34.377C312.741,222.959,315.554,237.159,315.554,252.323z M200.811,313.35
		c7.973,0,15.435-1.597,22.376-4.789s13.077-7.582,18.39-13.198c5.313-5.625,9.526-12.146,12.623-19.582
		c3.097-7.437,4.659-15.262,4.659-23.457c0-8.194-1.563-15.854-4.659-22.989c-3.097-7.124-7.234-13.432-12.405-18.901
		c-5.17-5.46-11.297-9.713-18.39-12.74c-7.083-3.037-14.621-4.555-22.594-4.555c-7.964,0-15.492,1.519-22.585,4.555
		c-7.083,3.027-13.229,7.28-18.39,12.74c-5.17,5.47-9.299,11.777-12.405,18.901c-3.106,7.135-4.64,14.795-4.64,22.989
		c0,8.195,1.534,16.021,4.64,23.457c3.106,7.436,7.32,13.879,12.623,19.349c5.322,5.471,11.449,9.869,18.399,13.208
		C185.375,311.675,192.847,313.35,200.811,313.35z"/>
</g>
</svg>
