<?xml version="1.0" encoding="utf-8"?>
<!-- Generator: Adobe Illustrator 16.0.0, SVG Export Plug-In . SVG Version: 6.00 Build 0)  -->
<!DOCTYPE svg PUBLIC "-//W3C//DTD SVG 1.1//EN" "http://www.w3.org/Graphics/SVG/1.1/DTD/svg11.dtd">
<svg version="1.1" id="Layer_1" xmlns="http://www.w3.org/2000/svg" xmlns:xlink="http://www.w3.org/1999/xlink" x="0px" y="0px"
	 width="400px" height="400px" viewBox="0 0 400 400" enable-background="new 0 0 400 400" xml:space="preserve">
<g>
	<path fill="#1A1A1A" d="M84.918,147.918c0-15.787,2.936-30.513,8.863-44.168C99.68,90.084,107.72,78.171,117.909,68
		c10.198-10.171,22.31-18.132,36.343-23.904c14.015-5.762,29.146-8.653,45.396-8.653c17.717,0,33.749,3.348,48.066,10.025
		c14.327,6.677,26.504,16.391,36.551,29.141c10.028,12.75,17.783,28.304,23.257,46.66c5.454,18.376,8.2,39.244,8.2,62.622
		c0,29.442-2.879,55.479-8.636,78.078c-5.767,22.619-13.892,41.589-24.384,56.918c-10.473,15.33-23.246,26.941-38.303,34.835
		c-15.075,7.894-31.911,11.845-50.499,11.845c-19.8,0-38.104-4.409-54.94-13.207c-16.827-8.809-31.002-21.403-42.526-37.794
		l34.108-38.25c7.083,11.543,16.25,20.497,27.47,26.862c11.221,6.385,23.484,9.559,36.769,9.559c19.772,0,35.509-8.04,47.175-24.119
		c11.657-16.098,17.793-38.854,18.39-68.306c-5.909,10.921-14.62,19.583-26.135,25.948c-11.534,6.385-24.81,9.567-39.885,9.567
		c-15.643,0-30.112-2.735-43.407-8.195c-13.295-5.46-24.81-13.052-34.553-22.766c-9.744-9.713-17.423-21.179-23.039-34.376
		C87.721,177.282,84.918,163.101,84.918,147.918z M199.647,86.892c-7.973,0-15.435,1.596-22.366,4.789
		c-6.941,3.192-13.068,7.592-18.38,13.198c-5.331,5.625-9.526,12.147-12.641,19.583c-3.087,7.437-4.649,15.262-4.649,23.457
		c0,8.195,1.562,15.864,4.649,22.989c3.115,7.134,7.234,13.431,12.404,18.901c5.17,5.47,11.307,9.713,18.389,12.75
		c7.093,3.037,14.621,4.545,22.594,4.545c7.983,0,15.501-1.508,22.603-4.545c7.073-3.037,13.21-7.28,18.38-12.75
		c5.151-5.47,9.299-11.768,12.404-18.901c3.097-7.125,4.649-14.794,4.649-22.989c0-8.195-1.553-16.021-4.649-23.457
		c-3.105-7.436-7.31-13.879-12.632-19.349c-5.321-5.47-11.438-9.87-18.389-13.208C215.082,88.566,207.63,86.892,199.647,86.892z"/>
</g>
</svg>
