<?xml version="1.0" encoding="utf-8"?>
<!-- Generator: Adobe Illustrator 16.0.0, SVG Export Plug-In . SVG Version: 6.00 Build 0)  -->
<!DOCTYPE svg PUBLIC "-//W3C//DTD SVG 1.1//EN" "http://www.w3.org/Graphics/SVG/1.1/DTD/svg11.dtd">
<svg version="1.1" id="Layer_1" xmlns="http://www.w3.org/2000/svg" xmlns:xlink="http://www.w3.org/1999/xlink" x="0px" y="0px"
	 width="300px" height="300px" viewBox="0 0 300 300" enable-background="new 0 0 300 300" xml:space="preserve">
<rect stroke="#000000" stroke-miterlimit="10" width="300" height="300"/>
<g>
	<path fill="#FFFFFF" d="M265.656,149.611c0,19.63-2.898,37.697-8.695,54.2s-13.845,30.774-24.104,42.815
		c-10.259,12.042-22.444,21.413-36.574,28.097c-14.112,6.692-29.367,10.039-45.714,10.039c-16.657,0-32.046-3.347-46.167-10.039
		c-14.13-6.684-26.315-16.055-36.575-28.097c-10.259-12.041-18.288-26.313-24.084-42.815c-5.806-16.503-8.705-34.57-8.705-54.2
		c0-19.62,2.899-37.677,8.705-54.19c5.797-16.494,13.825-30.775,24.084-42.807c10.26-12.051,22.445-21.489,36.575-28.325
		c14.121-6.836,29.51-10.259,46.167-10.259c16.347,0,31.602,3.423,45.714,10.259c14.13,6.835,26.315,16.274,36.574,28.325
		c10.26,12.032,18.308,26.313,24.104,42.807C262.758,111.934,265.656,129.991,265.656,149.611z M205.436,149.611
		c0-11.879-1.335-22.805-4.024-32.777c-2.669-9.954-6.464-18.515-11.365-25.646c-4.9-7.131-10.698-12.623-17.391-16.503
		c-6.693-3.861-14.055-5.797-22.087-5.797c-8.324,0-15.913,1.936-22.75,5.797c-6.846,3.88-12.71,9.372-17.62,16.503
		c-4.901,7.131-8.696,15.692-11.375,25.646c-2.67,9.972-4.015,20.898-4.015,32.777c0,11.898,1.345,22.748,4.015,32.567
		c2.679,9.811,6.474,18.286,11.375,25.417c4.91,7.141,10.774,12.643,17.62,16.513c6.837,3.861,14.426,5.797,22.75,5.797
		c8.033,0,15.394-1.936,22.087-5.797c6.692-3.87,12.49-9.372,17.391-16.513c4.901-7.131,8.696-15.606,11.365-25.417
		C204.101,172.359,205.436,161.51,205.436,149.611z"/>
</g>
</svg>
