<?xml version="1.0" encoding="utf-8"?>
<!-- Generator: Adobe Illustrator 16.0.0, SVG Export Plug-In . SVG Version: 6.00 Build 0)  -->
<!DOCTYPE svg PUBLIC "-//W3C//DTD SVG 1.1//EN" "http://www.w3.org/Graphics/SVG/1.1/DTD/svg11.dtd">
<svg version="1.1" id="Layer_1" xmlns="http://www.w3.org/2000/svg" xmlns:xlink="http://www.w3.org/1999/xlink" x="0px" y="0px"
	 width="300px" height="300px" viewBox="0 0 300 300" enable-background="new 0 0 300 300" xml:space="preserve">
<rect stroke="#000000" stroke-miterlimit="10" width="300" height="300"/>
<g>
	<path fill="#FFFFFF" d="M245.186,224.34v55.109H63.659V224.34h63.487V86.313c-2.676,3.651-6.852,7.371-12.51,11.168
		c-5.667,3.797-11.927,7.371-18.78,10.701c-6.862,3.35-14.02,6.076-21.465,8.198c-7.455,2.137-14.011,3.194-19.668,3.194v-56.94
		c5.361,0,11.917-1.743,19.668-5.238c7.75-3.485,15.348-7.672,22.803-12.521c7.444-4.858,14.01-9.639,19.668-14.352
		c5.667-4.712,9.089-8.432,10.283-11.158h61.261V224.34H245.186z"/>
</g>
</svg>
