<?xml version="1.0" encoding="utf-8"?>
<!-- Generator: Adobe Illustrator 16.0.0, SVG Export Plug-In . SVG Version: 6.00 Build 0)  -->
<!DOCTYPE svg PUBLIC "-//W3C//DTD SVG 1.1//EN" "http://www.w3.org/Graphics/SVG/1.1/DTD/svg11.dtd">
<svg version="1.1" id="Layer_1" xmlns="http://www.w3.org/2000/svg" xmlns:xlink="http://www.w3.org/1999/xlink" x="0px" y="0px"
	 width="300px" height="300px" viewBox="0 0 300 300" enable-background="new 0 0 300 300" xml:space="preserve">
<rect stroke="#000000" stroke-miterlimit="10" width="300" height="300"/>
<g>
	<path fill="#FFFFFF" d="M40.316,279.442c0-13.449,1.063-25.633,3.2-36.541c2.117-10.909,5.933-21.003,11.406-30.272
		c5.484-9.26,12.782-17.944,21.916-26.016c9.123-8.071,20.842-15.989,35.146-23.764c12.167-6.566,23.047-12.337,32.639-17.264
		c9.582-4.927,17.641-9.49,24.189-13.679c6.547-4.189,11.484-8.44,14.841-12.778c3.347-4.333,5.016-9.336,5.016-15.03
		c0-8.963-3.649-16.656-10.948-23.093c-7.309-6.422-17.808-9.634-31.497-9.634c-7.309,0-14.002,0.968-20.091,2.914
		c-6.088,1.937-11.796,4.568-17.114,7.846c-5.328,3.297-10.197,6.955-14.607,10.98c-4.42,4.045-8.45,8.301-12.099,12.788
		L43.058,61.499c3.952-4.18,9.582-8.742,16.89-13.669c7.298-4.942,15.895-9.567,25.789-13.909
		c9.884-4.323,20.842-7.918,32.863-10.765c12.021-2.837,24.882-4.256,38.572-4.256c15.523,0,29.369,1.869,41.547,5.598
		c12.168,3.748,22.433,8.977,30.805,15.702c8.371,6.729,14.763,14.8,19.173,24.214c4.41,9.413,6.626,19.67,6.626,30.723
		c0,10.468-1.991,19.742-5.933,27.809c-3.962,8.071-8.987,15.246-15.065,21.52c-6.099,6.279-12.715,11.743-19.857,16.363
		c-7.161,4.64-14.079,8.752-20.773,12.337c-5.474,2.991-11.338,6.279-17.573,9.864c-6.244,3.585-12.401,7.554-18.49,11.886
		c-6.089,4.333-11.641,9.05-16.656,14.13c-5.025,5.081-8.909,10.468-11.641,16.143h131.003v54.256H40.316z"/>
</g>
</svg>
