<?xml version="1.0" encoding="utf-8"?>
<!-- Generator: Adobe Illustrator 16.0.0, SVG Export Plug-In . SVG Version: 6.00 Build 0)  -->
<!DOCTYPE svg PUBLIC "-//W3C//DTD SVG 1.1//EN" "http://www.w3.org/Graphics/SVG/1.1/DTD/svg11.dtd">
<svg version="1.1" id="Layer_1" xmlns="http://www.w3.org/2000/svg" xmlns:xlink="http://www.w3.org/1999/xlink" x="0px" y="0px"
	 width="400px" height="400px" viewBox="0 0 400 400" enable-background="new 0 0 400 400" xml:space="preserve">
<rect stroke="#000000" stroke-miterlimit="10" width="400" height="400"/>
<g>
	<path fill="#FFFFFF" d="M245.988,185.241c18.823,3.347,33.986,12.392,45.491,27.155c11.494,14.763,17.251,32.794,17.251,54.085
		c0,14.313-2.768,27.242-8.295,38.805s-13.372,21.378-23.526,29.438c-10.153,8.069-22.404,14.314-36.744,18.715
		c-14.34,4.41-30.327,6.625-47.952,6.625c-23.009,0-43.239-3.737-60.721-11.182c-17.472-7.465-31.889-18.334-43.239-32.639
		l34.053-43.361c7.769,10.04,16.955,17.797,27.559,23.281c10.604,5.474,23.976,8.216,40.107,8.216
		c18.219,0,32.195-3.64,41.908-10.958c9.703-7.309,14.561-18.559,14.561-33.779c0-15.817-5.537-27.989-16.582-36.521
		c-11.054-8.509-27.788-12.782-50.193-12.782h-12.548v-45.645h13.899c18.219,0,32.406-4.176,42.569-12.548
		c10.153-8.367,15.24-19.105,15.24-32.18c0-12.479-4.109-21.759-12.328-27.847c-8.219-6.089-19.043-9.133-32.492-9.133
		c-13.746,0-26.064,3.2-36.965,9.586c-10.911,6.396-19.8,15.373-26.668,26.925L92.736,76.593
		c4.473-6.996,10.451-13.309,17.922-18.939c7.462-5.63,15.911-10.499,25.317-14.611c9.407-4.103,19.637-7.304,30.701-9.582
		c11.044-2.288,22.405-3.43,34.053-3.43c15.24,0,29.129,1.981,41.678,5.947c12.549,3.947,23.306,9.421,32.262,16.426
		c8.966,7.006,15.911,15.446,20.844,25.33c4.924,9.894,7.396,20.919,7.396,33.097c0,9.133-1.352,17.797-4.033,26.013
		c-2.691,8.221-6.581,15.685-11.657,22.369c-5.087,6.698-11.131,12.328-18.152,16.895S254.352,183.719,245.988,185.241z"/>
</g>
</svg>
