<?xml version="1.0" encoding="utf-8"?>
<!-- Generator: Adobe Illustrator 16.0.0, SVG Export Plug-In . SVG Version: 6.00 Build 0)  -->
<!DOCTYPE svg PUBLIC "-//W3C//DTD SVG 1.1//EN" "http://www.w3.org/Graphics/SVG/1.1/DTD/svg11.dtd">
<svg version="1.1" id="Layer_1" xmlns="http://www.w3.org/2000/svg" xmlns:xlink="http://www.w3.org/1999/xlink" x="0px" y="0px"
	 width="400px" height="400px" viewBox="0 0 400 400" enable-background="new 0 0 400 400" xml:space="preserve">
<rect stroke="#000000" stroke-miterlimit="10" width="400" height="400"/>
<g>
	<path fill="#FFFFFF" d="M205.268,146.986c14.853,0,28.676,2.458,41.451,7.355c12.775,4.906,23.846,11.813,33.201,20.73
		c9.365,8.917,16.644,19.606,21.846,32.087c5.191,12.479,7.793,26.294,7.793,41.451c0,16.043-2.973,30.609-8.908,43.681
		c-5.954,13.071-14.118,24.284-24.512,33.649c-10.404,9.355-22.731,16.634-36.993,21.835c-14.262,5.192-29.715,7.793-46.358,7.793
		c-23.169,0-43.9-4.896-62.172-14.7c-18.273-9.803-32.163-23.179-41.671-40.117l34.316-35.649
		c8.612,11.584,19.092,20.797,31.419,27.628c12.328,6.84,25.189,10.251,38.556,10.251c16.043,0,29.19-4.83,39.441-14.481
		c10.251-9.66,15.376-22.502,15.376-38.555c0-15.443-4.83-27.924-14.48-37.432c-9.66-9.508-21.922-14.271-36.774-14.271
		c-9.803,0-18.939,2.229-27.409,6.688c-8.47,4.458-15.224,10.556-20.273,18.272h-52.15c0-0.896,0.591-4.23,1.782-10.022
		c1.181-5.792,2.677-13.223,4.458-22.293c1.782-9.05,3.716-19.158,5.792-30.305c2.077-11.137,4.306-22.512,6.688-34.087
		c5.345-27.333,11.289-57.952,17.825-91.82h155.993v54.37h-112.76l-12.48,70.871c3.563-3.858,8.765-6.983,15.605-9.365
		C186.7,148.187,195.169,146.986,205.268,146.986z"/>
</g>
</svg>
