<?xml version="1.0" encoding="utf-8"?>
<!-- Generator: Adobe Illustrator 16.0.0, SVG Export Plug-In . SVG Version: 6.00 Build 0)  -->
<!DOCTYPE svg PUBLIC "-//W3C//DTD SVG 1.1//EN" "http://www.w3.org/Graphics/SVG/1.1/DTD/svg11.dtd">
<svg version="1.1" id="Layer_1" xmlns="http://www.w3.org/2000/svg" xmlns:xlink="http://www.w3.org/1999/xlink" x="0px" y="0px"
	 width="400px" height="400px" viewBox="0 0 400 400" enable-background="new 0 0 400 400" xml:space="preserve">
<rect stroke="#000000" stroke-miterlimit="10" width="400" height="400"/>
<g>
	<path fill="#FFFFFF" d="M314.406,247.458c0,15.787-2.954,30.504-8.863,44.17c-5.908,13.655-13.957,25.579-24.146,35.74
		c-10.188,10.171-22.3,18.143-36.324,23.904c-14.023,5.763-29.165,8.653-45.404,8.653c-17.717,0-33.739-3.339-48.066-10.016
		c-14.327-6.677-26.514-16.391-36.542-29.142c-10.047-12.75-17.802-28.304-23.266-46.681c-5.464-18.356-8.191-39.225-8.191-62.604
		c0-29.443,2.878-55.479,8.636-78.1c5.757-22.601,13.882-41.581,24.364-56.92c10.482-15.32,23.257-26.932,38.322-34.826
		c15.065-7.894,31.892-11.835,50.499-11.835c19.781,0,38.104,4.399,54.931,13.208c16.837,8.799,31.012,21.394,42.527,37.784
		l-34.108,38.252c-7.083-11.534-16.24-20.489-27.461-26.874c-11.23-6.366-23.483-9.558-36.77-9.558
		c-19.79,0-35.519,8.049-47.185,24.139c-11.666,16.089-17.793,38.854-18.38,68.298c5.899-10.931,14.621-19.574,26.135-25.958
		c11.515-6.366,24.81-9.558,39.866-9.558c15.358,0,29.752,2.735,43.198,8.195c13.437,5.47,25.027,13.062,34.771,22.786
		c9.744,9.704,17.424,21.16,23.039,34.368C311.594,218.083,314.406,232.274,314.406,247.458z M199.668,308.466
		c7.973,0,15.425-1.596,22.375-4.778c6.932-3.184,13.068-7.583,18.38-13.208c5.313-5.606,9.526-12.128,12.623-19.574
		c3.105-7.436,4.659-15.252,4.659-23.447s-1.554-15.865-4.659-22.989c-3.097-7.145-7.234-13.442-12.405-18.902
		c-5.17-5.47-11.297-9.714-18.379-12.75c-7.093-3.037-14.621-4.555-22.594-4.555c-7.974,0-15.501,1.519-22.594,4.555
		c-7.083,3.037-13.219,7.28-18.38,12.75c-5.17,5.46-9.308,11.758-12.405,18.902c-3.106,7.124-4.649,14.794-4.649,22.989
		s1.543,16.012,4.649,23.447c3.097,7.446,7.311,13.89,12.623,19.35c5.313,5.461,11.439,9.87,18.389,13.208
		C184.233,306.812,191.694,308.466,199.668,308.466z"/>
</g>
</svg>
