<?xml version="1.0" encoding="utf-8"?>
<!-- Generator: Adobe Illustrator 16.0.0, SVG Export Plug-In . SVG Version: 6.00 Build 0)  -->
<!DOCTYPE svg PUBLIC "-//W3C//DTD SVG 1.1//EN" "http://www.w3.org/Graphics/SVG/1.1/DTD/svg11.dtd">
<svg version="1.1" id="Layer_1" xmlns="http://www.w3.org/2000/svg" xmlns:xlink="http://www.w3.org/1999/xlink" x="0px" y="0px"
	 width="400px" height="400px" viewBox="0 0 400 400" enable-background="new 0 0 400 400" xml:space="preserve">
<rect stroke="#000000" stroke-miterlimit="10" width="400" height="400"/>
<g>
	<path fill="#FFFFFF" d="M314.351,257.826c0,14.881-3.057,28.272-9.16,40.158c-6.104,11.903-14.451,22.167-25.024,30.79
		c-10.574,8.642-22.867,15.252-36.859,19.859c-14.013,4.616-28.903,6.925-44.683,6.925c-15.798,0-30.612-2.461-44.462-7.363
		c-13.859-4.912-25.999-11.828-36.42-20.756c-10.43-8.929-18.702-19.479-24.805-31.688c-6.104-12.19-9.16-25.582-9.16-40.157
		c0-8.929,1.49-17.179,4.47-24.763c2.98-7.593,6.849-14.498,11.625-20.756c4.756-6.238,10.125-11.751,16.084-16.501
		c5.951-4.76,11.911-8.632,17.871-11.608c-11.328-5.351-20.851-13.383-28.597-24.094c-7.747-10.712-11.615-22.464-11.615-35.255
		c0-14.279,3.19-26.841,9.599-37.706c6.409-10.854,14.748-20.012,25.025-27.442c10.278-7.431,21.596-13.097,33.965-16.959
		c12.36-3.863,24.643-5.799,36.859-5.799c12.217,0,24.576,1.86,37.089,5.58c12.513,3.72,23.907,9.3,34.185,16.73
		c10.277,7.44,18.616,16.587,25.025,27.442c6.399,10.864,9.608,23.427,9.608,37.706c0,12.801-3.954,24.705-11.844,35.703
		c-7.899,11.007-17.498,19.048-28.816,24.094c6.256,3.272,12.426,7.364,18.539,12.276c6.104,4.903,11.462,10.56,16.085,16.96
		c4.613,6.391,8.339,13.459,11.175,21.194C312.938,240.133,314.351,248.612,314.351,257.826z M253.584,254.259
		c0-7.439-1.566-14.126-4.69-20.088c-3.133-5.942-7.23-10.932-12.292-14.938c-5.072-4.025-10.88-7.068-17.423-9.157
		c-6.562-2.079-13.267-3.119-20.115-3.119c-7.145,0-14.002,1.116-20.555,3.349c-6.553,2.231-12.36,5.427-17.422,9.596
		c-5.072,4.168-9.093,9.138-12.064,14.946c-2.98,5.8-4.47,12.276-4.47,19.411s1.566,13.612,4.69,19.411
		c3.133,5.81,7.221,10.788,12.293,14.947c5.062,4.178,10.946,7.363,17.651,9.596c6.696,2.232,13.468,3.348,20.326,3.348
		c7.153,0,13.926-1.192,20.335-3.576c6.399-2.366,12.131-5.647,17.202-9.807c5.063-4.168,9.084-9.156,12.063-14.956
		C252.084,267.422,253.584,261.107,253.584,254.259z M154.381,124.401c0,6.248,1.337,11.675,4.021,16.292s6.18,8.47,10.506,11.599
		c4.308,3.128,9.083,5.513,14.299,7.135c5.206,1.641,10.497,2.461,15.855,2.461c5.368,0,10.727-0.82,16.095-2.461
		c5.358-1.622,10.191-4.083,14.518-7.364c4.317-3.262,7.823-7.202,10.498-11.818c2.684-4.607,4.021-10.044,4.021-16.283
		c0-11.007-4.46-19.783-13.4-26.336c-8.94-6.534-19.514-9.815-31.73-9.815c-12.216,0-22.713,3.348-31.501,10.035
		C158.775,104.542,154.381,113.394,154.381,124.401z"/>
</g>
</svg>
