<?xml version="1.0" encoding="utf-8"?>
<!-- Generator: Adobe Illustrator 16.0.0, SVG Export Plug-In . SVG Version: 6.00 Build 0)  -->
<!DOCTYPE svg PUBLIC "-//W3C//DTD SVG 1.1//EN" "http://www.w3.org/Graphics/SVG/1.1/DTD/svg11.dtd">
<svg version="1.1" id="Layer_1" xmlns="http://www.w3.org/2000/svg" xmlns:xlink="http://www.w3.org/1999/xlink" x="0px" y="0px"
	 width="400px" height="400px" viewBox="0 0 400 400" enable-background="new 0 0 400 400" xml:space="preserve">
<rect stroke="#000000" stroke-miterlimit="10" width="400" height="400"/>
<g>
	<path fill="#FFFFFF" d="M83.813,142.197c0-15.778,2.945-30.504,8.863-44.17c5.899-13.655,13.948-25.559,24.137-35.74
		c10.189-10.162,22.3-18.133,36.333-23.905c14.015-5.762,29.156-8.653,45.405-8.653c17.717,0,33.739,3.338,48.066,10.016
		c14.317,6.677,26.504,16.391,36.541,29.141c10.038,12.75,17.793,28.314,23.257,46.681s8.2,39.245,8.2,62.604
		c0,29.453-2.879,55.479-8.636,78.1c-5.767,22.62-13.892,41.58-24.374,56.92c-10.482,15.32-23.256,26.932-38.313,34.825
		c-15.065,7.894-31.901,11.836-50.499,11.836c-19.791,0-38.104-4.399-54.931-13.198c-16.836-8.809-31.012-21.403-42.536-37.784
		l34.117-38.262c7.083,11.544,16.24,20.488,27.461,26.873c11.221,6.366,23.484,9.559,36.769,9.559
		c19.781,0,35.509-8.05,47.175-24.139c11.667-16.079,17.793-38.854,18.39-68.288c-5.909,10.921-14.62,19.563-26.135,25.948
		c-11.524,6.366-24.81,9.559-39.875,9.559c-15.653,0-30.122-2.735-43.407-8.195c-13.295-5.471-24.809-13.053-34.553-22.775
		c-9.753-9.705-17.433-21.161-23.039-34.378C86.615,171.572,83.813,157.381,83.813,142.197z M198.551,81.189
		c-7.973,0-15.435,1.596-22.375,4.779c-6.941,3.183-13.067,7.582-18.38,13.208c-5.322,5.616-9.526,12.147-12.632,19.573
		c-3.096,7.446-4.649,15.252-4.649,23.448c0,8.195,1.553,15.865,4.649,23c3.106,7.134,7.234,13.432,12.405,18.892
		c5.17,5.47,11.297,9.733,18.389,12.75c7.083,3.037,14.621,4.555,22.593,4.555c7.974,0,15.501-1.519,22.594-4.555
		c7.083-3.017,13.21-7.281,18.38-12.75c5.161-5.46,9.309-11.758,12.404-18.892c3.106-7.135,4.649-14.804,4.649-23
		c0-8.196-1.543-16.002-4.649-23.448c-3.096-7.426-7.31-13.889-12.622-19.35c-5.322-5.46-11.448-9.86-18.39-13.208
		C213.977,82.863,206.524,81.189,198.551,81.189z"/>
</g>
</svg>
