<?xml version="1.0" encoding="utf-8"?>
<!-- Generator: Adobe Illustrator 16.0.0, SVG Export Plug-In . SVG Version: 6.00 Build 0)  -->
<!DOCTYPE svg PUBLIC "-//W3C//DTD SVG 1.1//EN" "http://www.w3.org/Graphics/SVG/1.1/DTD/svg11.dtd">
<svg version="1.1" id="Layer_1" xmlns="http://www.w3.org/2000/svg" xmlns:xlink="http://www.w3.org/1999/xlink" x="0px" y="0px"
	 width="400px" height="400px" viewBox="0 0 400 400" enable-background="new 0 0 400 400" xml:space="preserve">
<g>
	<path fill="#ED2124" d="M315.621,262.547c0,14.881-3.057,28.264-9.16,40.168c-6.104,11.905-14.451,22.169-25.025,30.792
		c-10.572,8.623-22.865,15.243-36.858,19.859c-14.013,4.598-28.902,6.905-44.682,6.905c-15.798,0-30.613-2.451-44.462-7.363
		c-13.859-4.902-26-11.818-36.42-20.746c-10.43-8.919-18.702-19.479-24.805-31.68c-6.103-12.199-9.16-25.582-9.16-40.168
		c0-8.918,1.49-17.18,4.47-24.763c2.98-7.584,6.848-14.509,11.624-20.747c4.757-6.258,10.125-11.752,16.085-16.521
		c5.951-4.75,11.911-8.623,17.871-11.599c-11.328-5.361-20.851-13.393-28.597-24.095c-7.746-10.712-11.615-22.454-11.615-35.255
		c0-14.28,3.19-26.842,9.6-37.707c6.409-10.855,14.748-20.003,25.025-27.443c10.277-7.44,21.596-13.087,33.965-16.96
		c12.359-3.863,24.643-5.799,36.859-5.799c12.217,0,24.576,1.86,37.089,5.57c12.514,3.73,23.907,9.31,34.186,16.741
		c10.277,7.44,18.615,16.588,25.024,27.443c6.399,10.865,9.608,23.427,9.608,37.716c0,12.782-3.954,24.687-11.844,35.694
		c-7.899,11.008-17.498,19.04-28.817,24.095c6.257,3.281,12.427,7.364,18.54,12.267c6.104,4.911,11.462,10.569,16.085,16.96
		c4.613,6.41,8.338,13.469,11.175,21.195C314.207,244.854,315.621,253.333,315.621,262.547z M254.854,258.979
		c0-7.431-1.566-14.127-4.689-20.078c-3.133-5.952-7.23-10.933-12.293-14.957c-5.071-4.006-10.879-7.06-17.422-9.139
		c-6.563-2.078-13.268-3.129-20.115-3.129c-7.145,0-14.002,1.116-20.555,3.35c-6.553,2.222-12.36,5.427-17.422,9.586
		c-5.072,4.178-9.093,9.156-12.063,14.957c-2.98,5.8-4.47,12.267-4.47,19.41c0,7.145,1.566,13.612,4.69,19.412
		c3.133,5.801,7.221,10.789,12.293,14.947c5.062,4.168,10.946,7.364,17.651,9.596c6.696,2.232,13.468,3.35,20.326,3.35
		c7.155,0,13.926-1.184,20.335-3.568c6.398-2.384,12.13-5.646,17.201-9.824c5.063-4.158,9.084-9.139,12.063-14.947
		C253.354,272.145,254.854,265.818,254.854,258.979z M155.652,129.118c0,6.248,1.337,11.685,4.021,16.283
		c2.684,4.617,6.18,8.49,10.507,11.609c4.308,3.119,9.083,5.504,14.299,7.145c5.206,1.641,10.497,2.452,15.855,2.452
		c5.368,0,10.727-0.811,16.094-2.452c5.359-1.641,10.192-4.092,14.52-7.364c4.316-3.272,7.822-7.211,10.496-11.829
		c2.686-4.607,4.021-10.035,4.021-16.292c0-10.998-4.461-19.784-13.4-26.327c-8.939-6.544-19.514-9.815-31.729-9.815
		s-22.714,3.348-31.501,10.044C160.045,109.268,155.652,118.12,155.652,129.118z"/>
</g>
</svg>
